# xmcd CD database file
#
# Track frame offsets:
#	150
#	26410
#	48827
#	74107
#	97150
#
# Disc length: 1560 seconds
#
# Revision: 0
# Processed by: cddbd v1.5.1PL0 Copyright (c) Steve Scherf et al.
# Submitted via: CDex 1.51
#
DISCID=42061605
DTITLE=ROUAGE - NK AUG.26.2000 DISC.2
DYEAR=2001
DGENRE=Rock
TTITLE0=Queen
TTITLE1=冷たい太陽
TTITLE2=Pa.ra.no.i.a
TTITLE3=肌色。
TTITLE4=ファンクション
EXTD=YEAR: 2001
EXTT0=
EXTT1=
EXTT2=
EXTT3=
EXTT4=
PLAYORDER=
